<svg xmlns="http://www.w3.org/2000/svg" xmlns:xlink="http://www.w3.org/1999/xlink" viewBox="0 0 124.11 63.56"><defs><style>.cls-1{fill:url(#linear-gradient);}.cls-2{fill:url(#linear-gradient-2);}.cls-3{fill:url(#linear-gradient-3);}.cls-4{fill:#383838;}</style><linearGradient id="linear-gradient" y1="31.78" x2="82.97" y2="31.78" gradientUnits="userSpaceOnUse"><stop offset="0" stop-color="#ff7300"/><stop offset="0" stop-color="#f97009"/><stop offset="0" stop-color="#ea6623"/><stop offset="0" stop-color="#d0584c"/><stop offset="0" stop-color="#ad4386"/><stop offset="0" stop-color="#842bc9"/><stop offset="0.06" stop-color="#8b2bbe"/><stop offset="0.16" stop-color="#9c2ba2"/><stop offset="0.29" stop-color="#b92b73"/><stop offset="0.45" stop-color="#e02c33"/><stop offset="0.55" stop-color="#fe2c03"/><stop offset="0.87" stop-color="#e5a200"/><stop offset="0.99" stop-color="#bf5400"/></linearGradient><linearGradient id="linear-gradient-2" x1="88.74" y1="12.21" x2="124.11" y2="12.21" gradientUnits="userSpaceOnUse"><stop offset="0.01" stop-color="#ff3500"/><stop offset="0.2" stop-color="#d32539"/><stop offset="0.39" stop-color="#af1869"/><stop offset="0.57" stop-color="#930d8e"/><stop offset="0.73" stop-color="#7f06a9"/><stop offset="0.88" stop-color="#7202b9"/><stop offset="0.99" stop-color="#6e00bf"/></linearGradient><linearGradient id="linear-gradient-3" x1="61.09" y1="31.78" x2="112.73" y2="31.78" gradientUnits="userSpaceOnUse"><stop offset="0" stop-color="#fe2c03"/><stop offset="1" stop-color="#93278f" stop-opacity="0.99"/></linearGradient></defs><title>Asset 3</title><g id="Layer_2" data-name="Layer 2"><g id="Layer_1-2" data-name="Layer 1"><path class="cls-1" d="M46.07,53c.62-.27.27-.24,1-.56l2.46-1.75,12.76-10L76.42,29.58a3.07,3.07,0,0,0,.45-.43l1.93-1.5L83,32.18,53.43,55a31.79,31.79,0,1,1,3.15-43.11H47.26A25.18,25.18,0,0,0,6.64,30.18C5.74,44.82,17.36,57.66,31.77,57Z"/><polygon class="cls-2" points="124.11 0.16 92.74 24.43 88.74 19.71 114.05 0 124.11 0.16"/><polygon class="cls-3" points="112.73 50.22 111.73 59.13 111.71 59.29 111.56 59.13 88.98 34.58 84.8 30.04 61.09 4.27 70.45 4.27 90.25 25.79 94.45 30.35 110.11 47.37 112.73 50.22"/><polygon class="cls-4" points="108.38 52.88 108.36 53.03 108.21 52.88 108.38 52.88"/></g></g></svg>